<svg width="44" height="20" viewBox="0 0 44 20" fill="none" xmlns="http://www.w3.org/2000/svg">
<rect width="44" height="20" rx="10" fill="#1D4CB3"/>
<path d="M8.396 15V13.74L11.636 10.68C11.892 10.448 12.08 10.24 12.2 10.056C12.32 9.872 12.4 9.704 12.44 9.552C12.488 9.4 12.512 9.26 12.512 9.132C12.512 8.796 12.396 8.54 12.164 8.364C11.94 8.18 11.608 8.088 11.168 8.088C10.816 8.088 10.488 8.156 10.184 8.292C9.888 8.428 9.636 8.64 9.428 8.928L8.012 8.016C8.332 7.536 8.78 7.156 9.356 6.876C9.932 6.596 10.596 6.456 11.348 6.456C11.972 6.456 12.516 6.56 12.98 6.768C13.452 6.968 13.816 7.252 14.072 7.62C14.336 7.988 14.468 8.428 14.468 8.94C14.468 9.212 14.432 9.484 14.36 9.756C14.296 10.02 14.16 10.3 13.952 10.596C13.752 10.892 13.456 11.224 13.064 11.592L10.376 14.124L10.004 13.416H14.744V15H8.396ZM16.7673 15.096C16.4473 15.096 16.1713 14.988 15.9393 14.772C15.7153 14.548 15.6033 14.264 15.6033 13.92C15.6033 13.576 15.7153 13.3 15.9393 13.092C16.1713 12.876 16.4473 12.768 16.7673 12.768C17.0953 12.768 17.3713 12.876 17.5953 13.092C17.8193 13.3 17.9313 13.576 17.9313 13.92C17.9313 14.264 17.8193 14.548 17.5953 14.772C17.3713 14.988 17.0953 15.096 16.7673 15.096ZM19.9487 15L23.3327 7.344L23.8367 8.184H19.3127L20.1767 7.272V9.552H18.4487V6.6H25.1807V7.86L22.0607 15H19.9487ZM26.5759 15.096C26.2559 15.096 25.9799 14.988 25.7479 14.772C25.5239 14.548 25.4119 14.264 25.4119 13.92C25.4119 13.576 25.5239 13.3 25.7479 13.092C25.9799 12.876 26.2559 12.768 26.5759 12.768C26.9039 12.768 27.1799 12.876 27.4039 13.092C27.6279 13.3 27.7399 13.576 27.7399 13.92C27.7399 14.264 27.6279 14.548 27.4039 14.772C27.1799 14.988 26.9039 15.096 26.5759 15.096ZM31.4537 15.144C30.8697 15.144 30.2897 15.068 29.7137 14.916C29.1377 14.756 28.6497 14.532 28.2497 14.244L29.0057 12.756C29.3257 12.988 29.6977 13.172 30.1217 13.308C30.5457 13.444 30.9737 13.512 31.4057 13.512C31.8937 13.512 32.2777 13.416 32.5577 13.224C32.8377 13.032 32.9777 12.768 32.9777 12.432C32.9777 12.112 32.8537 11.86 32.6057 11.676C32.3577 11.492 31.9577 11.4 31.4057 11.4H30.5177V10.116L32.8577 7.464L33.0737 8.16H28.6697V6.6H34.5497V7.86L32.2217 10.512L31.2377 9.948H31.8017C32.8337 9.948 33.6137 10.18 34.1417 10.644C34.6697 11.108 34.9337 11.704 34.9337 12.432C34.9337 12.904 34.8097 13.348 34.5617 13.764C34.3137 14.172 33.9337 14.504 33.4217 14.76C32.9097 15.016 32.2537 15.144 31.4537 15.144Z" fill="white"/>
</svg>
