<svg width="44" height="20" viewBox="0 0 44 20" fill="none" xmlns="http://www.w3.org/2000/svg">
<rect width="44" height="20" rx="10" fill="#1D4CB3"/>
<path d="M8.70739 15V13.6705L11.8139 10.794C12.0781 10.5384 12.2997 10.3082 12.4787 10.1037C12.6605 9.89915 12.7983 9.69886 12.892 9.50284C12.9858 9.30398 13.0327 9.08949 13.0327 8.85938C13.0327 8.60369 12.9744 8.38352 12.858 8.19886C12.7415 8.01136 12.5824 7.8679 12.3807 7.76847C12.179 7.66619 11.9503 7.61506 11.6946 7.61506C11.4276 7.61506 11.1946 7.66903 10.9957 7.77699C10.7969 7.88494 10.6435 8.03977 10.5355 8.24148C10.4276 8.44318 10.3736 8.68324 10.3736 8.96165H8.62216C8.62216 8.39062 8.75142 7.89489 9.00994 7.47443C9.26847 7.05398 9.63068 6.72869 10.0966 6.49858C10.5625 6.26847 11.0994 6.15341 11.7074 6.15341C12.3324 6.15341 12.8764 6.2642 13.3395 6.4858C13.8054 6.70455 14.1676 7.00852 14.4261 7.39773C14.6847 7.78693 14.8139 8.23295 14.8139 8.7358C14.8139 9.06534 14.7486 9.39062 14.6179 9.71165C14.4901 10.0327 14.2614 10.3892 13.9318 10.7812C13.6023 11.1705 13.1378 11.6378 12.5384 12.1832L11.2642 13.4318V13.4915H14.929V15H8.70739ZM17.3441 15.1108C17.0629 15.1108 16.8214 15.0114 16.6197 14.8125C16.4208 14.6108 16.3214 14.3693 16.3214 14.0881C16.3214 13.8097 16.4208 13.571 16.6197 13.3722C16.8214 13.1733 17.0629 13.0739 17.3441 13.0739C17.6168 13.0739 17.8555 13.1733 18.06 13.3722C18.2646 13.571 18.3668 13.8097 18.3668 14.0881C18.3668 14.2756 18.3185 14.4474 18.2219 14.6037C18.1282 14.7571 18.0046 14.8807 17.8512 14.9744C17.6978 15.0653 17.5288 15.1108 17.3441 15.1108ZM19.8572 15L23.4751 7.84091V7.78125H19.2607V6.27273H25.3842V7.80256L21.7621 15H19.8572ZM26.2269 15.1108C25.9457 15.1108 25.7042 15.0114 25.5025 14.8125C25.3036 14.6108 25.2042 14.3693 25.2042 14.0881C25.2042 13.8097 25.3036 13.571 25.5025 13.3722C25.7042 13.1733 25.9457 13.0739 26.2269 13.0739C26.4996 13.0739 26.7383 13.1733 26.9428 13.3722C27.1474 13.571 27.2496 13.8097 27.2496 14.0881C27.2496 14.2756 27.2013 14.4474 27.1048 14.6037C27.011 14.7571 26.8874 14.8807 26.734 14.9744C26.5806 15.0653 26.4116 15.1108 26.2269 15.1108ZM28.5909 13.4659V12.0128L32.2344 6.27273H33.4872V8.28409H32.7457L30.4489 11.919V11.9872H35.6264V13.4659H28.5909ZM32.7798 15V13.0227L32.8139 12.3793V6.27273H34.544V15H32.7798Z" fill="white"/>
</svg>
