<svg width="44" height="20" viewBox="0 0 44 20" fill="none" xmlns="http://www.w3.org/2000/svg">
<rect width="44" height="20" rx="10" fill="#1D4CB3"/>
<path d="M12.7367 15V13.6705L15.8432 10.794C16.1074 10.5384 16.329 10.3082 16.508 10.1037C16.6898 9.89915 16.8276 9.69886 16.9213 9.50284C17.0151 9.30398 17.062 9.08949 17.062 8.85938C17.062 8.60369 17.0037 8.38352 16.8873 8.19886C16.7708 8.01136 16.6117 7.8679 16.41 7.76847C16.2083 7.66619 15.9796 7.61506 15.7239 7.61506C15.4569 7.61506 15.2239 7.66903 15.025 7.77699C14.8262 7.88494 14.6728 8.03977 14.5648 8.24148C14.4569 8.44318 14.4029 8.68324 14.4029 8.96165H12.6515C12.6515 8.39062 12.7807 7.89489 13.0392 7.47443C13.2978 7.05398 13.66 6.72869 14.1259 6.49858C14.5918 6.26847 15.1287 6.15341 15.7367 6.15341C16.3617 6.15341 16.9057 6.2642 17.3688 6.4858C17.8347 6.70455 18.1969 7.00852 18.4554 7.39773C18.714 7.78693 18.8432 8.23295 18.8432 8.7358C18.8432 9.06534 18.7779 9.39062 18.6472 9.71165C18.5194 10.0327 18.2907 10.3892 17.9611 10.7812C17.6316 11.1705 17.1671 11.6378 16.5676 12.1832L15.2935 13.4318V13.4915H18.9583V15H12.7367ZM21.3734 15.1108C21.0922 15.1108 20.8507 15.0114 20.649 14.8125C20.4501 14.6108 20.3507 14.3693 20.3507 14.0881C20.3507 13.8097 20.4501 13.571 20.649 13.3722C20.8507 13.1733 21.0922 13.0739 21.3734 13.0739C21.6461 13.0739 21.8848 13.1733 22.0893 13.3722C22.2939 13.571 22.3961 13.8097 22.3961 14.0881C22.3961 14.2756 22.3478 14.4474 22.2512 14.6037C22.1575 14.7571 22.0339 14.8807 21.8805 14.9744C21.7271 15.0653 21.5581 15.1108 21.3734 15.1108ZM23.8865 15L27.5044 7.84091V7.78125H23.29V6.27273H29.4135V7.80256L25.7914 15H23.8865Z" fill="white"/>
</svg>
