<svg width="44" height="20" viewBox="0 0 44 20" fill="none" xmlns="http://www.w3.org/2000/svg">
<rect width="44" height="20" rx="10" fill="#1D4CB3"/>
<path d="M13.35 15V13.6705L16.4565 10.794C16.7207 10.5384 16.9423 10.3082 17.1213 10.1037C17.3031 9.89915 17.4409 9.69886 17.5346 9.50284C17.6284 9.30398 17.6752 9.08949 17.6752 8.85938C17.6752 8.60369 17.617 8.38352 17.5005 8.19886C17.3841 8.01136 17.225 7.8679 17.0233 7.76847C16.8216 7.66619 16.5929 7.61506 16.3372 7.61506C16.0701 7.61506 15.8372 7.66903 15.6383 7.77699C15.4395 7.88494 15.286 8.03977 15.1781 8.24148C15.0701 8.44318 15.0162 8.68324 15.0162 8.96165H13.2647C13.2647 8.39062 13.394 7.89489 13.6525 7.47443C13.911 7.05398 14.2733 6.72869 14.7392 6.49858C15.2051 6.26847 15.742 6.15341 16.35 6.15341C16.975 6.15341 17.519 6.2642 17.9821 6.4858C18.448 6.70455 18.8102 7.00852 19.0687 7.39773C19.3272 7.78693 19.4565 8.23295 19.4565 8.7358C19.4565 9.06534 19.3912 9.39062 19.2605 9.71165C19.1326 10.0327 18.9039 10.3892 18.5744 10.7812C18.2449 11.1705 17.7804 11.6378 17.1809 12.1832L15.9068 13.4318V13.4915H19.5716V15H13.35ZM21.9867 15.1108C21.7054 15.1108 21.464 15.0114 21.2623 14.8125C21.0634 14.6108 20.964 14.3693 20.964 14.0881C20.964 13.8097 21.0634 13.571 21.2623 13.3722C21.464 13.1733 21.7054 13.0739 21.9867 13.0739C22.2594 13.0739 22.498 13.1733 22.7026 13.3722C22.9071 13.571 23.0094 13.8097 23.0094 14.0881C23.0094 14.2756 22.9611 14.4474 22.8645 14.6037C22.7708 14.7571 22.6472 14.8807 22.4938 14.9744C22.3404 15.0653 22.1713 15.1108 21.9867 15.1108ZM27.3869 15.1193C26.7306 15.1193 26.1468 15.0128 25.6355 14.7997C25.127 14.5838 24.7278 14.2898 24.438 13.9176C24.1483 13.5455 24.0034 13.1236 24.0034 12.652C24.0034 12.2884 24.0858 11.9545 24.2505 11.6506C24.4181 11.3438 24.6454 11.0895 24.9324 10.8878C25.2193 10.6832 25.5403 10.5526 25.8954 10.4957V10.4361C25.4295 10.3423 25.0517 10.1165 24.7619 9.75852C24.4721 9.39773 24.3272 8.97869 24.3272 8.50142C24.3272 8.04972 24.4593 7.64773 24.7235 7.29545C24.9877 6.94034 25.35 6.66193 25.8102 6.46023C26.2733 6.25568 26.7988 6.15341 27.3869 6.15341C27.975 6.15341 28.4991 6.25568 28.9593 6.46023C29.4224 6.66477 29.786 6.9446 30.0502 7.29972C30.3145 7.65199 30.448 8.05256 30.4508 8.50142C30.448 8.98153 30.3002 9.40057 30.0076 9.75852C29.715 10.1165 29.34 10.3423 28.8826 10.4361V10.4957C29.2321 10.5526 29.5488 10.6832 29.8329 10.8878C30.1199 11.0895 30.3471 11.3438 30.5147 11.6506C30.6852 11.9545 30.7718 12.2884 30.7747 12.652C30.7718 13.1236 30.6255 13.5455 30.3358 13.9176C30.046 14.2898 29.6454 14.5838 29.1341 14.7997C28.6255 15.0128 28.0431 15.1193 27.3869 15.1193ZM27.3869 13.7642C27.6795 13.7642 27.9352 13.7116 28.1539 13.6065C28.3727 13.4986 28.5431 13.3509 28.6653 13.1634C28.7903 12.973 28.8528 12.7543 28.8528 12.5071C28.8528 12.2543 28.7889 12.0312 28.661 11.8381C28.5332 11.642 28.3599 11.4886 28.1412 11.3778C27.9224 11.2642 27.671 11.2074 27.3869 11.2074C27.1056 11.2074 26.8542 11.2642 26.6326 11.3778C26.411 11.4886 26.2363 11.642 26.1085 11.8381C25.9835 12.0312 25.921 12.2543 25.921 12.5071C25.921 12.7543 25.9821 12.973 26.1042 13.1634C26.2264 13.3509 26.3983 13.4986 26.6199 13.6065C26.8414 13.7116 27.0971 13.7642 27.3869 13.7642ZM27.3869 9.86506C27.6312 9.86506 27.8485 9.81534 28.0389 9.71591C28.2292 9.61648 28.3784 9.47869 28.4863 9.30256C28.5943 9.12642 28.6483 8.9233 28.6483 8.69318C28.6483 8.46591 28.5943 8.26705 28.4863 8.09659C28.3784 7.9233 28.2306 7.78835 28.0431 7.69176C27.8556 7.59233 27.6369 7.54261 27.3869 7.54261C27.1397 7.54261 26.921 7.59233 26.7306 7.69176C26.5403 7.78835 26.3912 7.9233 26.2832 8.09659C26.1781 8.26705 26.1255 8.46591 26.1255 8.69318C26.1255 8.9233 26.1795 9.12642 26.2875 9.30256C26.3954 9.47869 26.5446 9.61648 26.7349 9.71591C26.9252 9.81534 27.1426 9.86506 27.3869 9.86506Z" fill="white"/>
</svg>
