<svg width="44" height="20" viewBox="0 0 44 20" fill="none" xmlns="http://www.w3.org/2000/svg">
<rect width="44" height="20" rx="10" fill="#1D4CB3"/>
<path d="M8.70739 15V13.6705L11.8139 10.794C12.0781 10.5384 12.2997 10.3082 12.4787 10.1037C12.6605 9.89915 12.7983 9.69886 12.892 9.50284C12.9858 9.30398 13.0327 9.08949 13.0327 8.85938C13.0327 8.60369 12.9744 8.38352 12.858 8.19886C12.7415 8.01136 12.5824 7.8679 12.3807 7.76847C12.179 7.66619 11.9503 7.61506 11.6946 7.61506C11.4276 7.61506 11.1946 7.66903 10.9957 7.77699C10.7969 7.88494 10.6435 8.03977 10.5355 8.24148C10.4276 8.44318 10.3736 8.68324 10.3736 8.96165H8.62216C8.62216 8.39062 8.75142 7.89489 9.00994 7.47443C9.26847 7.05398 9.63068 6.72869 10.0966 6.49858C10.5625 6.26847 11.0994 6.15341 11.7074 6.15341C12.3324 6.15341 12.8764 6.2642 13.3395 6.4858C13.8054 6.70455 14.1676 7.00852 14.4261 7.39773C14.6847 7.78693 14.8139 8.23295 14.8139 8.7358C14.8139 9.06534 14.7486 9.39062 14.6179 9.71165C14.4901 10.0327 14.2614 10.3892 13.9318 10.7812C13.6023 11.1705 13.1378 11.6378 12.5384 12.1832L11.2642 13.4318V13.4915H14.929V15H8.70739ZM17.3441 15.1108C17.0629 15.1108 16.8214 15.0114 16.6197 14.8125C16.4208 14.6108 16.3214 14.3693 16.3214 14.0881C16.3214 13.8097 16.4208 13.571 16.6197 13.3722C16.8214 13.1733 17.0629 13.0739 17.3441 13.0739C17.6168 13.0739 17.8555 13.1733 18.06 13.3722C18.2646 13.571 18.3668 13.8097 18.3668 14.0881C18.3668 14.2756 18.3185 14.4474 18.2219 14.6037C18.1282 14.7571 18.0046 14.8807 17.8512 14.9744C17.6978 15.0653 17.5288 15.1108 17.3441 15.1108ZM22.7443 15.1193C22.0881 15.1193 21.5043 15.0128 20.9929 14.7997C20.4844 14.5838 20.0852 14.2898 19.7955 13.9176C19.5057 13.5455 19.3608 13.1236 19.3608 12.652C19.3608 12.2884 19.4432 11.9545 19.608 11.6506C19.7756 11.3438 20.0028 11.0895 20.2898 10.8878C20.5767 10.6832 20.8977 10.5526 21.2528 10.4957V10.4361C20.7869 10.3423 20.4091 10.1165 20.1193 9.75852C19.8295 9.39773 19.6847 8.97869 19.6847 8.50142C19.6847 8.04972 19.8168 7.64773 20.081 7.29545C20.3452 6.94034 20.7074 6.66193 21.1676 6.46023C21.6307 6.25568 22.1562 6.15341 22.7443 6.15341C23.3324 6.15341 23.8565 6.25568 24.3168 6.46023C24.7798 6.66477 25.1435 6.9446 25.4077 7.29972C25.6719 7.65199 25.8054 8.05256 25.8082 8.50142C25.8054 8.98153 25.6577 9.40057 25.3651 9.75852C25.0724 10.1165 24.6974 10.3423 24.2401 10.4361V10.4957C24.5895 10.5526 24.9063 10.6832 25.1903 10.8878C25.4773 11.0895 25.7045 11.3438 25.8722 11.6506C26.0426 11.9545 26.1293 12.2884 26.1321 12.652C26.1293 13.1236 25.983 13.5455 25.6932 13.9176C25.4034 14.2898 25.0028 14.5838 24.4915 14.7997C23.983 15.0128 23.4006 15.1193 22.7443 15.1193ZM22.7443 13.7642C23.0369 13.7642 23.2926 13.7116 23.5114 13.6065C23.7301 13.4986 23.9006 13.3509 24.0227 13.1634C24.1477 12.973 24.2102 12.7543 24.2102 12.5071C24.2102 12.2543 24.1463 12.0312 24.0185 11.8381C23.8906 11.642 23.7173 11.4886 23.4986 11.3778C23.2798 11.2642 23.0284 11.2074 22.7443 11.2074C22.4631 11.2074 22.2116 11.2642 21.9901 11.3778C21.7685 11.4886 21.5938 11.642 21.4659 11.8381C21.3409 12.0312 21.2784 12.2543 21.2784 12.5071C21.2784 12.7543 21.3395 12.973 21.4616 13.1634C21.5838 13.3509 21.7557 13.4986 21.9773 13.6065C22.1989 13.7116 22.4545 13.7642 22.7443 13.7642ZM22.7443 9.86506C22.9886 9.86506 23.206 9.81534 23.3963 9.71591C23.5866 9.61648 23.7358 9.47869 23.8438 9.30256C23.9517 9.12642 24.0057 8.9233 24.0057 8.69318C24.0057 8.46591 23.9517 8.26705 23.8438 8.09659C23.7358 7.9233 23.5881 7.78835 23.4006 7.69176C23.2131 7.59233 22.9943 7.54261 22.7443 7.54261C22.4972 7.54261 22.2784 7.59233 22.0881 7.69176C21.8977 7.78835 21.7486 7.9233 21.6406 8.09659C21.5355 8.26705 21.483 8.46591 21.483 8.69318C21.483 8.9233 21.5369 9.12642 21.6449 9.30256C21.7528 9.47869 21.902 9.61648 22.0923 9.71591C22.2827 9.81534 22.5 9.86506 22.7443 9.86506ZM28.2543 15.1108C27.973 15.1108 27.7315 15.0114 27.5298 14.8125C27.331 14.6108 27.2315 14.3693 27.2315 14.0881C27.2315 13.8097 27.331 13.571 27.5298 13.3722C27.7315 13.1733 27.973 13.0739 28.2543 13.0739C28.527 13.0739 28.7656 13.1733 28.9702 13.3722C29.1747 13.571 29.277 13.8097 29.277 14.0881C29.277 14.2756 29.2287 14.4474 29.1321 14.6037C29.0384 14.7571 28.9148 14.8807 28.7614 14.9744C28.608 15.0653 28.4389 15.1108 28.2543 15.1108ZM30.7504 15V13.6705L33.8569 10.794C34.1211 10.5384 34.3427 10.3082 34.5217 10.1037C34.7035 9.89915 34.8413 9.69886 34.935 9.50284C35.0288 9.30398 35.0756 9.08949 35.0756 8.85938C35.0756 8.60369 35.0174 8.38352 34.9009 8.19886C34.7844 8.01136 34.6254 7.8679 34.4237 7.76847C34.2219 7.66619 33.9933 7.61506 33.7376 7.61506C33.4705 7.61506 33.2376 7.66903 33.0387 7.77699C32.8398 7.88494 32.6864 8.03977 32.5785 8.24148C32.4705 8.44318 32.4165 8.68324 32.4165 8.96165H30.6651C30.6651 8.39062 30.7944 7.89489 31.0529 7.47443C31.3114 7.05398 31.6737 6.72869 32.1396 6.49858C32.6055 6.26847 33.1424 6.15341 33.7504 6.15341C34.3754 6.15341 34.9194 6.2642 35.3825 6.4858C35.8484 6.70455 36.2106 7.00852 36.4691 7.39773C36.7276 7.78693 36.8569 8.23295 36.8569 8.7358C36.8569 9.06534 36.7915 9.39062 36.6609 9.71165C36.533 10.0327 36.3043 10.3892 35.9748 10.7812C35.6452 11.1705 35.1808 11.6378 34.5813 12.1832L33.3072 13.4318V13.4915H36.9719V15H30.7504Z" fill="white"/>
</svg>
