<svg width="30" height="32" viewBox="0 0 30 32" fill="none" xmlns="http://www.w3.org/2000/svg">
<path d="M30 15C30 23.2843 23.2843 30 15 30C6.71573 30 0 23.2843 0 15C0 6.71573 6.71573 0 15 0C23.2843 0 30 6.71573 30 15Z" fill="#07D17C"/>
<path d="M30 15C30 23.2843 23.2843 30 15 30C15 30 15 21.7843 15 13.5C15 5.21573 15 0 15 0C23.2843 0 30 6.71573 30 15Z" fill="#404040" fill-opacity="0.25"/>
<g filter="url(#filter0_d_20_61)">
<path d="M6 14.557L11.5 20.057L24 7.44302" stroke="white" stroke-width="5"/>
</g>
<defs>
<filter id="filter0_d_20_61" x="0.232239" y="5.68329" width="29.5435" height="25.9173" filterUnits="userSpaceOnUse" color-interpolation-filters="sRGB">
<feFlood flood-opacity="0" result="BackgroundImageFix"/>
<feColorMatrix in="SourceAlpha" type="matrix" values="0 0 0 0 0 0 0 0 0 0 0 0 0 0 0 0 0 0 127 0" result="hardAlpha"/>
<feOffset dy="4"/>
<feGaussianBlur stdDeviation="2"/>
<feComposite in2="hardAlpha" operator="out"/>
<feColorMatrix type="matrix" values="0 0 0 0 0 0 0 0 0 0 0 0 0 0 0 0 0 0 0.25 0"/>
<feBlend mode="normal" in2="BackgroundImageFix" result="effect1_dropShadow_20_61"/>
<feBlend mode="normal" in="SourceGraphic" in2="effect1_dropShadow_20_61" result="shape"/>
</filter>
</defs>
</svg>
